<svg width="16" height="16" fill="none" xmlns="http://www.w3.org/2000/svg"><g clip-path="url(#a)"><path d="M1.99967 2H13.9997c.1768 0 .3464.07024.4714.19526.125.12503.1952.2946.1952.47141V13.3333c0 .1768-.0702.3464-.1952.4714-.125.1251-.2946.1953-.4714.1953H1.99967c-.17681 0-.34638-.0702-.4714-.1953-.12502-.125-.19526-.2946-.19526-.4714V2.66667c0-.17681.07024-.34638.19526-.47141C1.65329 2.07024 1.82286 2 1.99967 2ZM13.333 4.82533 8.04767 9.55867l-5.38133-4.748v7.85603H13.333V4.82533Zm-10.32599-1.492 5.03333 4.44134L13.001 3.33333H3.00701Z" fill="#969696"/></g><defs><clipPath id="a"><path fill="#fff" d="M0 0h16v16H0z"/></clipPath></defs></svg>