<svg width="131" height="25" fill="none" xmlns="http://www.w3.org/2000/svg"><path d="M3.46023 1.45454V24H.730114V1.45454H3.46023ZM10.56 13.8281V24H7.96194V7.09091h2.50996v2.64204h.2202c.3963-.85866.9981-1.54853 1.8054-2.0696.8072-.52841 1.8494-.79261 3.1264-.79261 1.1449 0 2.1466.23485 3.0053.70454.8587.46236 1.5265 1.16691 2.0036 2.11364.477.93938.7155 2.12828.7155 3.56678V24h-2.598V13.4318c0-1.3283-.3449-2.3631-1.0348-3.1044-.6899-.74857-1.6366-1.12286-2.8402-1.12286-.8293 0-1.5706.17981-2.2237.53942-.6459.35964-1.1559.88434-1.5302 1.57424-.3743.6898-.5614 1.5265-.5614 2.5099Zm22.4456-6.73719v2.2017h-9.1151v-2.2017h9.1151ZM26.6206 24V4.7571c0-.96875.2275-1.77604.6825-2.42187.4551-.64584 1.0459-1.13021 1.7724-1.453129.7266-.322917 1.4935-.484375 2.3008-.484375.6385 0 1.1596.051373 1.5632.15412.4037.102746.7046.198153.9027.286221l-.7486 2.245743c-.1321-.04404-.3155-.09908-.5504-.16513-.2275-.06605-.5284-.09908-.9027-.09908-.8587 0-1.4788.2165-1.8604.6495-.3743.43301-.5615 1.06783-.5615 1.90448V24h-2.598Zm15.5791.3523c-1.5266 0-2.8659-.3633-4.0182-1.0899-1.1448-.7265-2.0402-1.743-2.686-3.0493-.6385-1.3064-.9578-2.8329-.9578-4.5796 0-1.7613.3193-3.2989.9578-4.6125.6458-1.31373 1.5412-2.33386 2.686-3.06042 1.1523-.72656 2.4916-1.08984 4.0182-1.08984 1.5265 0 2.8622.36328 4.0071 1.08984 1.1522.72656 2.0475 1.74669 2.686 3.06042.6459 1.3136.9688 2.8512.9688 4.6125 0 1.7467-.3229 3.2732-.9688 4.5796-.6385 1.3063-1.5338 2.3228-2.686 3.0493-1.1449.7266-2.4806 1.0899-4.0071 1.0899Zm0-2.3338c1.1595 0 2.1136-.2973 2.8622-.8917.7486-.5945 1.3026-1.3761 1.6623-2.3448.3596-.9688.5394-2.0183.5394-3.1485 0-1.1302-.1798-2.1833-.5394-3.1594-.3597-.9761-.9137-1.7651-1.6623-2.3669-.7486-.60176-1.7027-.90266-2.8622-.90266-1.1596 0-2.1137.3009-2.8623.90266-.7485.6018-1.3026 1.3908-1.6622 2.3669-.3597.9761-.5395 2.0292-.5395 3.1594 0 1.1302.1798 2.1797.5395 3.1485.3596.9687.9137 1.7503 1.6622 2.3448.7486.5944 1.7027.8917 2.8623.8917ZM53.2074 24V7.09091h2.51v2.55398h.1761c.3082-.83665.866-1.51551 1.6733-2.03658.8073-.52107 1.7173-.78161 2.7301-.78161.1908 0 .4293.00367.7156.01101.2862.00734.5027.01835.6495.03303v2.64204c-.0881-.02201-.2899-.05504-.6055-.09907-.3082-.05138-.6348-.07706-.9798-.07706-.8219 0-1.5558.17246-2.2017.5174-.6385.33755-1.1449.80725-1.5192 1.40905-.3669.5945-.5504 1.2734-.5504 2.0366V24h-2.598Zm11.2665 0V1.45454h7.8821c1.5705 0 2.8659.27155 3.886.81464 1.0201.53574 1.7797 1.25864 2.2787 2.16867.4991.9027.7486 1.90448.7486 3.00533 0 .96875-.1724 1.7687-.5174 2.39986-.3376.63116-.7853 1.13016-1.343 1.49716-.5504.3669-1.1486.6385-1.7944.8146v.2202c.6899.044 1.3834.2862 2.0806.7266.6972.4403 1.2807 1.0715 1.7504 1.8934.4697.822.7045 1.8274.7045 3.0164 0 1.1302-.2569 2.1466-.7706 3.0493-.5137.9027-1.3247 1.6183-2.4329 2.1467S74.3962 24 72.6202 24h-8.1463Zm2.7301-2.4219h5.4162c1.7834 0 3.0493-.3449 3.7979-1.0348.7559-.6972 1.1339-1.5412 1.1339-2.5319 0-.7633-.1945-1.4678-.5835-2.1137-.3889-.6531-.943-1.1742-1.6622-1.5632-.7193-.3963-1.5706-.5944-2.554-.5944H67.204v7.838Zm0-10.2159h5.0639c.822 0 1.5632-.1614 2.2237-.4844.6679-.3229 1.1963-.7779 1.5852-1.36502.3964-.58712.5945-1.27699.5945-2.0696 0-.99077-.3449-1.83108-1.0348-2.52095-.6899-.69721-1.7834-1.04581-3.2805-1.04581h-5.152v7.48578Zm21.4356 13.0341c-1.0715 0-2.044-.2018-2.9173-.6055-.8733-.4109-1.5669-1.0017-2.0806-1.7723-.5137-.778-.7706-1.7174-.7706-2.8182 0-.9688.1908-1.754.5724-2.3558.3817-.6092.8917-1.0862 1.5302-1.4311.6385-.345 1.3431-.6018 2.1136-.7706.778-.1762 1.5596-.3156 2.3449-.4184 1.0274-.1321 1.8604-.2311 2.4989-.2972.6458-.0734 1.1155-.1945 1.4091-.3633.3009-.1688.4513-.4623.4513-.8807v-.088c0-1.0862-.2972-1.9302-.8916-2.532-.5872-.60179-1.4789-.90269-2.6751-.90269-1.2403 0-2.2127.27154-2.9173.81463-.7045.54306-1.1999 1.12286-1.4861 1.73936l-2.4659-.8807c.4403-1.02746 1.0274-1.82741 1.7613-2.39985.7413-.57978 1.5486-.98343 2.4219-1.21094.8807-.23485 1.7467-.35227 2.598-.35227.5431 0 1.1669.06605 1.8715.19815.7118.12476 1.398.3853 2.0586.78161.6678.3963 1.2219.99443 1.6622 1.79439.4404.79991.6606 1.87141.6606 3.21451V24h-2.5981v-2.2898h-.1321c-.1761.367-.4697.7596-.8806 1.1779-.411.4184-.9578.7743-1.6403 1.0679-.6825.2935-1.5155.4403-2.4989.4403Zm.3963-2.3338c1.0274 0 1.8934-.2018 2.598-.6055.7119-.4036 1.2476-.9247 1.6072-1.5632.367-.6385.5504-1.31.5504-2.0145v-2.3779c-.11.1321-.3522.2532-.7265.3633-.367.1027-.7926.1945-1.277.2752-.477.0734-.9431.1395-1.3981.1982-.4477.0513-.811.0954-1.0898.1321-.6752.088-1.3064.2311-1.8935.4293-.5798.1908-1.0495.4807-1.4091.8697-.3523.3816-.5284.9027-.5284 1.5632 0 .9027.3339 1.5852 1.0018 2.0476.6752.455 1.5302.6825 2.565.6825Zm23.4531-11.1847-2.334.6606c-.147-.389-.363-.767-.65-1.1339-.278-.3743-.66-.68255-1.144-.92474-.485-.24219-1.105-.36328-1.861-.36328-1.035 0-1.897.23851-2.587.71555-.682.46967-1.024 1.06787-1.024 1.79437 0 .6459.235 1.1559.705 1.5302.47.3743 1.203.6862 2.202.9357l2.51.6165c1.511.367 2.638.9284 3.379 1.6843.741.7486 1.112 1.7137 1.112 2.8953 0 .9687-.279 1.8347-.837 2.598-.55.7632-1.321 1.365-2.311 1.8054-.991.4403-2.143.6605-3.457.6605-1.725 0-3.152-.3743-4.282-1.1229-1.131-.7486-1.846-1.8421-2.1471-3.2805l2.4661-.6165c.235.91.679 1.5926 1.332 2.0476.66.455 1.523.6825 2.587.6825 1.211 0 2.172-.2569 2.884-.7706.719-.5211 1.079-1.1449 1.079-1.8714 0-.5872-.206-1.0789-.617-1.4752-.411-.4036-1.042-.7045-1.893-.9027l-2.818-.6605c-1.549-.3669-2.686-.9357-3.413-1.7063-.719-.778-1.079-1.7504-1.079-2.9173 0-.954.268-1.79804.804-2.53194.543-.7339 1.281-1.31001 2.213-1.72834.939-.41832 2.003-.62748 3.192-.62748 1.673 0 2.987.36695 3.941 1.10085.962.7339 1.644 1.70265 2.048 2.90621Zm10.688 13.4745c-1.629 0-3.034-.3596-4.216-1.0789-1.174-.7265-2.081-1.7393-2.719-3.0383-.631-1.3064-.947-2.8255-.947-4.5575 0-1.7321.316-3.2586.947-4.5796.638-1.32835 1.526-2.36315 2.664-3.10439 1.145-.74858 2.481-1.12287 4.007-1.12287.881 0 1.75.14678 2.609.44034.859.29356 1.64.7706 2.345 1.43111.704.65317 1.266 1.51921 1.684 2.59801.419 1.0788.628 2.4072.628 3.9851v1.1008h-13.034v-2.2457h10.392c0-.9541-.191-1.8054-.573-2.554-.374-.7486-.91-1.3394-1.607-1.77235-.69-.433-1.505-.64951-2.444-.64951-1.035 0-1.93.25687-2.686.7706-.749.50636-1.325 1.16686-1.728 1.98156-.404.8146-.606 1.6879-.606 2.62v1.4972c0 1.277.22 2.3595.661 3.2475.447.8807 1.067 1.5522 1.86 2.0145.793.4551 1.714.6826 2.763.6826.683 0 1.299-.0954 1.85-.2863.557-.1981 1.038-.4917 1.442-.8806.403-.3963.715-.8881.936-1.4752l2.509.7046c-.264.8513-.708 1.5999-1.332 2.2457-.623.6385-1.394 1.1376-2.311 1.4972-.918.3522-1.949.5284-3.094.5284Z" fill="#fff"/></svg>