<svg width="126" height="24" fill="none" xmlns="http://www.w3.org/2000/svg"><path d="M3.28409 1.18182V23H.642046V1.18182H3.28409ZM10.1548 13.1562V23H7.64059V6.63636h2.42901v2.55682h.213c.3836-.83096.9659-1.49858 1.7472-2.00284.7812-.51136 1.7898-.76704 3.0256-.76704 1.1079 0 2.0774.22727 2.9083.68181.831.44745 1.4773 1.12927 1.939 2.04546.4616.90913.6924 2.05963.6924 3.45173V23h-2.5142V12.7727c0-1.2855-.3338-2.2869-1.0014-3.00423-.6676-.72444-1.5838-1.08665-2.7486-1.08665-.8025 0-1.5199.174-2.152.52201-.625.34802-1.1186.85587-1.4808 1.52347-.3622.6676-.5433 1.4772-.5433 2.4289Zm21.7215-6.51984v2.13068h-8.821V6.63636h8.821ZM25.6974 23V4.37784c0-.9375.2201-1.71875.6605-2.34375.4403-.625 1.0121-1.093751 1.7152-1.406251.7031-.3125 1.4453-.46875 2.2265-.46875.6179 0 1.1222.049717 1.5128.149149.3907.099431.6818.191761.8736.276988l-.7244 2.173294c-.1279-.04261-.3054-.09588-.5327-.1598-.2202-.06392-.5114-.09588-.8736-.09588-.8309 0-1.4311.20952-1.8004.62855-.3622.41904-.5433 1.03338-.5433 1.84304V23h-2.5142Zm15.0765.3409c-1.4773 0-2.7735-.3516-3.8885-1.0547-1.108-.7031-1.9745-1.6868-2.5995-2.951-.6179-1.2642-.9268-2.7415-.9268-4.4318 0-1.7045.3089-3.1925.9268-4.4638.625-1.27128 1.4915-2.25849 2.5995-2.96162 1.115-.70312 2.4112-1.05468 3.8885-1.05468 1.4772 0 2.7699.35156 3.8778 1.05468 1.1151.70313 1.9815 1.69034 2.5994 2.96162.625 1.2713.9375 2.7593.9375 4.4638 0 1.6903-.3125 3.1676-.9375 4.4318-.6179 1.2642-1.4843 2.2479-2.5994 2.951-1.1079.7031-2.4006 1.0547-3.8778 1.0547Zm0-2.2585c1.1221 0 2.0454-.2877 2.7699-.8629.7244-.5753 1.2606-1.3317 1.6086-2.2692.348-.9375.522-1.9531.522-3.0469 0-1.0937-.174-2.1129-.522-3.0575-.348-.9446-.8842-1.7081-1.6086-2.2905-.7245-.58239-1.6478-.87358-2.7699-.87358-1.1222 0-2.0455.29119-2.7699.87358-.7245.5824-1.2607 1.3459-1.6087 2.2905-.348.9446-.522 1.9638-.522 3.0575 0 1.0938.174 2.1094.522 3.0469.348.9375.8842 1.6939 1.6087 2.2692.7244.5752 1.6477.8629 2.7699.8629ZM51.4265 23V6.63636h2.429v2.47159h.1705c.2983-.80965.838-1.46661 1.6193-1.97088.7812-.50426 1.6619-.75639 2.642-.75639.1847 0 .4155.00355.6925.01065.277.00711.4865.01776.6285.03197v2.55681c-.0852-.0213-.2805-.05326-.5859-.09588-.2983-.04971-.6143-.07457-.9481-.07457-.7955 0-1.5057.1669-2.1307.50071-.6179.3267-1.108.78123-1.4702 1.36363-.3551.5753-.5327 1.2322-.5327 1.9709V23h-2.5142Z" fill="#7300B5"/><path d="M62.3295 23V1.18182h7.6279c1.5199 0 2.7734.26278 3.7606.78835.9873.51847 1.7223 1.21804 2.2053 2.09872.483.87358.7244 1.84304.7244 2.90838 0 .9375-.1669 1.71165-.5007 2.32245-.3267.61079-.7599 1.09378-1.2997 1.44888-.5327.3551-1.1115.6179-1.7365.7883v.2131c.6676.0426 1.3388.277 2.0135.7031.6747.4262 1.2393 1.037 1.6939 1.8324.4545.7955.6818 1.7685.6818 2.919 0 1.0938-.2486 2.0775-.7457 2.951-.4972.8736-1.282 1.5661-2.3544 2.0775-1.0725.5113-2.4681.767-4.1868.767h-7.8836Zm2.6421-2.3438h5.2415c1.7258 0 2.951-.3338 3.6754-1.0014.7315-.6747 1.0973-1.4914 1.0973-2.4503 0-.7386-.1882-1.4204-.5646-2.0454-.3765-.6321-.9127-1.1364-1.6087-1.5128-.696-.3835-1.5199-.5753-2.4716-.5753h-5.3693v7.5852Zm0-9.8863h4.9006c.7954 0 1.5127-.1563 2.1519-.4688.6464-.31246 1.1577-.7528 1.5341-1.32099.3836-.56818.5753-1.23579.5753-2.00284 0-.9588-.3338-1.77201-1.0014-2.43963-.6676-.67471-1.7258-1.01207-3.1747-1.01207h-4.9858v7.24433Zm20.7441 12.6136c-1.0369 0-1.978-.1953-2.8232-.5859-.8451-.3977-1.5163-.9695-2.0135-1.7152-.4971-.7529-.7457-1.6619-.7457-2.7273 0-.9375.1847-1.6974.554-2.2798.3693-.5895.8629-1.0512 1.4808-1.385.6179-.3338 1.2997-.5823 2.0455-.7457.7528-.1705 1.5092-.3054 2.2691-.4048.9944-.1279 1.8005-.2237 2.4184-.2877.625-.071 1.0795-.1882 1.3636-.3515.2912-.1634.4368-.4475.4368-.8523v-.0852c0-1.0512-.2876-1.8679-.8629-2.45032-.5682-.58238-1.4311-.87358-2.5888-.87358-1.2003 0-2.1413.26279-2.8232.78836-.6818.52556-1.1612 1.08664-1.4382 1.68324l-2.3863-.8523c.4261-.9943.9943-1.76844 1.7045-2.32242.7173-.56108 1.4986-.95171 2.3438-1.17188.8522-.22727 1.6903-.3409 2.5142-.3409.5255 0 1.1292.06392 1.811.19176.689.12073 1.353.37287 1.9922.75639.6463.38352 1.1826.96236 1.6087 1.7365.4261.77415.6392 1.81105.6392 3.11085V23h-2.5142v-2.2159h-.1278c-.1705.3551-.4546.7351-.8523 1.1399-.3977.4048-.9269.7493-1.5874 1.0334-.6605.2841-1.4666.4261-2.4183.4261Zm.3835-2.2585c.9943 0 1.8324-.1953 2.5142-.5859.6889-.3907 1.2074-.8949 1.5554-1.5128.3551-.6179.5327-1.2678.5327-1.9496v-2.3011c-.1065.1278-.3409.245-.7031.3515-.3551.0995-.7671.1882-1.2358.2664-.4617.071-.9127.1349-1.353.1917-.4332.0497-.7848.0924-1.0547.1279-.6534.0852-1.2642.2237-1.8324.4155-.5611.1846-1.0156.4651-1.3636.8416-.3409.3693-.5114.8735-.5114 1.5128 0 .8735.3232 1.534.9695 1.9815.6534.4403 1.4808.6605 2.4822.6605Zm22.6968-10.8239-2.259.6392c-.142-.3764-.352-.7421-.629-1.09726-.269-.36222-.639-.66051-1.107-.89489-.469-.23437-1.069-.35156-1.801-.35156-1.001 0-1.836.23082-2.503.69247-.661.45455-.9912 1.03334-.9912 1.73654 0 .625.2273 1.1186.6822 1.4808.454.3622 1.164.6641 2.13.9055l2.429.5966c1.463.3551 2.554.8985 3.271 1.63.717.7244 1.076 1.6584 1.076 2.8018 0 .9375-.27 1.7756-.81 2.5142-.532.7387-1.278 1.3211-2.237 1.7472-.959.4261-2.074.6392-3.345.6392-1.669 0-3.0506-.3622-4.1444-1.0866-1.0937-.7245-1.7862-1.7827-2.0774-3.1748l2.3864-.5965c.2273.8806.6569 1.5411 1.2894 1.9815.639.4403 1.473.6605 2.503.6605 1.172 0 2.102-.2486 2.791-.7457.696-.5043 1.044-1.108 1.044-1.8111 0-.5682-.198-1.0441-.596-1.4276-.398-.3906-1.009-.6818-1.833-.8736l-2.727-.6392c-1.4984-.3551-2.5993-.9055-3.3024-1.6512-.696-.7529-1.044-1.6939-1.044-2.8232 0-.9233.2592-1.74005.7777-2.45028.5256-.71022 1.2393-1.26775 2.1413-1.67258.9094-.40483 1.9394-.60724 3.0894-.60724 1.619 0 2.891.35511 3.814 1.06534.93.71022 1.591 1.64772 1.982 2.81246Zm10.343 13.0398c-1.576 0-2.937-.348-4.08-1.044-1.136-.7031-2.013-1.6833-2.631-2.9404-.611-1.2642-.917-2.7343-.917-4.4105 0-1.6761.306-3.1534.917-4.4318.618-1.28551 1.477-2.28693 2.578-3.00426 1.108-.72443 2.4-1.08664 3.878-1.08664.852 0 1.693.14204 2.524.42613s1.588.74574 2.27 1.38495c.681.6321 1.225 1.47017 1.63 2.51422.404 1.044.607 2.3295.607 3.8565v1.0654h-12.614v-2.1733h10.057c0-.9233-.185-1.7472-.554-2.4716-.362-.7245-.881-1.2962-1.555-1.71523-.668-.41904-1.456-.62855-2.365-.62855-1.002 0-1.868.24858-2.6.74574-.724.49005-1.282 1.12924-1.672 1.91764-.391.7883-.586 1.6335-.586 2.5355v1.4488c0 1.2358.213 2.2834.639 3.1428.433.8523 1.033 1.5021 1.8 1.9496.767.4403 1.659.6605 2.674.6605.661 0 1.257-.0923 1.79-.277.54-.1918 1.005-.4759 1.396-.8523.39-.3835.692-.8594.905-1.4275l2.429.6818c-.256.8238-.685 1.5483-1.289 2.1733-.604.6179-1.349 1.1008-2.237 1.4488-.888.341-1.886.5114-2.994.5114Z" fill="#1397F3"/></svg>