<svg width="19" height="18" fill="none" xmlns="http://www.w3.org/2000/svg"><path d="M8.99996 17.3333c-4.6025 0-8.333334-3.7308-8.333334-8.33329 0-4.6025 3.730834-8.333336 8.333334-8.333336 1.29384-.000972 2.57014.299811 3.72744.878456 1.1573.57864 2.1637 1.41919 2.9392 2.45488h-2.2583c-.9623-.84854-2.149-1.40137-3.41775-1.59217-1.26871-.1908-2.56554-.01145-3.73485.51651-1.16932.52797-2.16145 1.38212-2.85735 2.45998-.6959 1.07785-1.066 2.33362-1.06589 3.6166.0001 1.28297.37041 2.53867 1.06649 3.61647.69608 1.0777 1.68836 1.9317 2.85776 2.4595 1.16941.5277 2.46626.7069 3.73494.5158 1.26865-.191 2.45535-.744 3.41745-1.5927h2.2584c-.7757 1.0358-1.7822 1.8764-2.9396 2.4551-1.1575.5786-2.4339.8793-3.72794.8782Zm5.83334-5V9.83334H8.16663V8.16667h6.66667v-2.5L19 9.00001l-4.1667 3.33329Z" fill="#fff"/></svg>