<svg width="16" height="16" fill="none" xmlns="http://www.w3.org/2000/svg"><g clip-path="url(#a)"><path d="M14 10.9467v2.3573c.0001.1688-.0639.3313-.1789.4548-.1151.1235-.2727.1987-.4411.2105-.2913.02-.5293.0307-.7133.0307C6.77533 14 2 9.22467 2 3.33333c0-.184.01-.422.03067-.71333.01181-.16837.08705-.32599.21053-.44106.12348-.11507.28602-.17902.4548-.17894h2.35733c.0827-.00008.16247.03057.22382.08601.06136.05544.09991.13171.10818.21399.01534.15333.02934.27533.04267.368.13249.92462.404 1.82389.80533 2.66733.06334.13334.022.29267-.098.378l-1.43866 1.028C5.5763 8.79097 7.2097 10.4244 9.25933 11.304L10.286 9.868c.042-.05867.1032-.10075.173-.1189.0698-.01815.1438-.01123.209.01957.8433.40053 1.7424.67143 2.6667.80333.0926.0133.2146.028.3666.0427.0822.0084.1583.047.2136.1084.0553.0613.0852.141.0851.2236Z" fill="#969696"/></g><defs><clipPath id="a"><path fill="#fff" d="M0 0h16v16H0z"/></clipPath></defs></svg>